<?xml version="1.0" encoding="UTF-8"?>
<svg version="1.1" xmlns="http://www.w3.org/2000/svg" width="1983" height="793" viewBox="0 0 1983 793">
<path d="M0 0 C0.7 0.26 1.39 0.52 2.11 0.78 C37.43 14.09 64.18 38.89 79.91 73.16 C83.22 80.59 85.91 88.13 88 96 C88.23 96.8 88.45 97.6 88.68 98.43 C91.17 108.62 92.26 121.59 86.68 130.85 C79.84 139.59 72.22 143.66 61.31 145.56 C60.61 145.69 59.91 145.81 59.19 145.94 C57.13 146.3 55.06 146.65 53 147 C51.97 147.17 50.95 147.35 49.89 147.53 C48 147.84 46.1 148.16 44.21 148.47 C40.22 149.13 36.23 149.81 32.25 150.5 C31.55 150.62 30.86 150.74 30.14 150.86 C26.68 151.46 23.27 152.16 19.87 153.03 C16.51 153.87 13.24 154.5 9.81 155 C8.7 155.16 7.58 155.33 6.44 155.5 C5.3 155.66 4.17 155.83 3 156 C-10.17 157.81 -10.17 157.81 -23.05 160.95 C-28.19 162.44 -33.47 163.05 -38.75 163.81 C-51.59 165.72 -64.32 168.04 -77.07 170.45 C-80.92 171.17 -84.77 171.84 -88.62 172.5 C-93.5 173.35 -98.35 174.27 -103.2 175.26 C-104.86 175.6 -104.86 175.6 -106.54 175.94 C-108.7 176.38 -110.85 176.83 -113.01 177.29 C-119.66 178.66 -126.22 179.54 -133 180 C-124.57 195.4 -114.63 207.14 -100 217 C-99.18 217.56 -98.36 218.13 -97.52 218.71 C-76.07 232.55 -48.77 234.79 -24.24 229.97 C-7.88 226.41 7.14 218.81 20.09 208.34 C27.32 202.53 34.11 197.42 43.79 197.68 C50.1 198.59 56.55 201.42 61 206 C65.68 212.58 67.86 217.86 67 226 C65.18 233.83 62.21 238.98 56 244 C55.06 244.77 54.12 245.54 53.15 246.33 C35.97 260.08 16.45 271.49 -5 277 C-5.74 277.19 -6.49 277.39 -7.26 277.59 C-20.68 280.91 -34.06 281.39 -47.81 281.44 C-48.63 281.44 -49.45 281.45 -50.29 281.46 C-65.54 281.53 -80.68 280.07 -95.19 275.06 C-96.47 274.63 -96.47 274.63 -97.78 274.18 C-113.22 268.65 -128.56 260.77 -141 250 C-142.48 248.72 -142.48 248.72 -143.99 247.42 C-171.29 223.38 -190.24 190.59 -194 154 C-194.31 148.45 -194.39 142.93 -194.38 137.38 C-194.37 136.63 -194.37 135.88 -194.37 135.11 C-194.34 123.32 -193.42 112.33 -190 101 C-189.51 99.19 -189.51 99.19 -189.01 97.34 C-178.75 62.93 -156.25 32.29 -126 13 C-124.95 12.32 -123.89 11.64 -122.8 10.95 C-86.64 -11.03 -39.53 -14.66 0 0 Z" fill="#0B423D" transform="translate(695,255)"/>
<path d="M0 0 C0.84 0.26 1.68 0.52 2.54 0.79 C37.43 11.89 67.19 34.64 84.3 67.25 C92.85 84.17 103.28 107.71 98.4 126.91 C95.47 135.32 89.93 142.06 82.06 146.31 C74.97 149.22 67.47 150.58 59.96 151.99 C57.96 152.37 55.96 152.76 53.96 153.15 C46.16 154.65 38.38 155.84 30.5 156.84 C25.84 157.48 21.28 158.39 16.69 159.38 C11.09 160.57 5.59 161.56 -0.11 162.06 C-2.03 162.23 -2.03 162.23 -3.94 163.31 C-6.24 163.62 -8.53 163.82 -10.84 164.03 C-12.99 164.2 -12.99 164.2 -14.94 165.31 C-17.58 165.76 -20.22 166.17 -22.88 166.56 C-38.02 168.87 -53.17 171.53 -68.12 174.88 C-75.4 176.49 -82.75 177.63 -90.1 178.83 C-96.8 179.92 -103.38 181.23 -110 182.72 C-114.29 183.59 -118.58 184.02 -122.94 184.31 C-119.42 191.1 -115.75 197.37 -110.94 203.31 C-110.32 204.15 -110.32 204.15 -109.68 205.01 C-96.81 221.54 -73.5 232.22 -53.25 235.07 C-21.03 238.46 7.54 229.19 32.75 209.3 C40.74 203.03 48.06 202.17 58.06 203.31 C65.79 205.97 70.38 211.18 74.06 218.31 C76.13 224.53 75.51 230.98 73.21 237.07 C62.31 258.39 31.2 271.35 9.67 278.36 C-24.39 288.95 -65.12 287.46 -97.94 273.31 C-98.63 273.02 -99.33 272.73 -100.05 272.43 C-116.11 265.59 -129.48 256.48 -141.94 244.31 C-142.86 243.46 -143.79 242.61 -144.74 241.73 C-163.06 224.42 -175.08 200.61 -180.94 176.31 C-181.2 175.31 -181.47 174.3 -181.74 173.27 C-184 164.06 -184.4 155.29 -184.33 145.84 C-184.31 143.38 -184.33 140.92 -184.35 138.46 C-184.36 128.35 -183.32 119.14 -180.94 109.31 C-180.77 108.5 -180.59 107.7 -180.42 106.86 C-174.89 81.01 -160.67 57.42 -142.3 38.71 C-141.08 37.46 -139.89 36.18 -138.71 34.89 C-128.08 23.63 -114.7 15.23 -100.94 8.31 C-100.31 7.99 -99.68 7.67 -99.03 7.34 C-69.85 -7.03 -31.01 -9.82 0 0 Z" fill="#0B433D" transform="translate(1613.9375,250.6875)"/>
<path d="M0 0 C1.12 -0.01 1.12 -0.01 2.27 -0.02 C3.85 -0.03 5.43 -0.03 7.01 -0.04 C9.37 -0.05 11.73 -0.08 14.09 -0.11 C28.3 -0.21 41.92 1.62 55.41 6.27 C56.28 6.56 57.15 6.86 58.05 7.16 C72.27 12.21 85.52 19.43 97.04 29.2 C97.56 29.64 98.08 30.08 98.62 30.54 C119.13 48.02 132.37 70.49 139.79 96.27 C139.99 96.95 140.19 97.63 140.39 98.34 C143.55 109.94 144.34 121.68 144.33 133.65 C144.34 135.04 144.34 136.42 144.35 137.8 C144.37 141.51 144.37 145.22 144.37 148.93 C144.38 151.26 144.38 153.59 144.38 155.91 C144.4 164.05 144.41 172.19 144.41 180.32 C144.41 187.88 144.43 195.43 144.46 202.98 C144.49 209.5 144.5 216.02 144.5 222.53 C144.5 226.41 144.5 230.29 144.52 234.17 C144.54 237.82 144.54 241.46 144.53 245.11 C144.53 247.06 144.54 249.02 144.56 250.98 C144.5 259.82 143.22 268.27 137.85 275.58 C131.43 281.57 124.31 284.68 115.54 284.54 C107.98 283.52 102.38 279.17 97.51 273.56 C92.64 265.77 92.62 258.6 92.67 249.64 C92.67 248.28 92.66 246.91 92.66 245.55 C92.65 242.63 92.65 239.71 92.66 236.79 C92.67 232.16 92.66 227.53 92.64 222.89 C92.61 211.37 92.6 199.85 92.6 188.34 C92.6 179.39 92.6 170.45 92.56 161.51 C92.55 157.66 92.54 153.82 92.56 149.97 C93.05 121.98 93.05 121.98 84.29 95.77 C83.77 94.79 83.77 94.79 83.25 93.8 C75.06 78.72 64.59 68.83 50.04 60.2 C49.19 59.7 48.35 59.19 47.48 58.66 C30.46 49.3 7.13 47.98 -11.39 53.29 C-15.39 54.71 -19.18 56.27 -22.96 58.2 C-23.8 58.6 -24.64 59 -25.5 59.41 C-44.14 68.75 -58.33 85.48 -64.99 105.19 C-68.2 115.13 -69.4 124.11 -69.35 134.57 C-69.35 135.96 -69.36 137.36 -69.36 138.76 C-69.37 141.74 -69.38 144.73 -69.37 147.71 C-69.36 152.44 -69.38 157.16 -69.4 161.88 C-69.44 172.76 -69.45 183.63 -69.46 194.51 C-69.47 204.49 -69.49 214.48 -69.53 224.47 C-69.55 229.16 -69.55 233.85 -69.55 238.54 C-69.55 241.46 -69.56 244.38 -69.57 247.3 C-69.58 249.29 -69.57 251.28 -69.56 253.27 C-69.62 263.08 -71.05 270.14 -77.97 277.44 C-84.63 283.34 -91.73 283.91 -100.43 283.64 C-108.29 282.66 -112.5 278.05 -117.52 272.27 C-120.54 267.95 -121.21 264.19 -121.22 258.98 C-121.23 257.72 -121.24 256.47 -121.24 255.18 C-121.24 253.79 -121.24 252.41 -121.24 251.03 C-121.24 249.57 -121.25 248.1 -121.25 246.64 C-121.26 242.67 -121.27 238.7 -121.26 234.73 C-121.26 231.41 -121.27 228.08 -121.27 224.76 C-121.28 216.9 -121.28 209.05 -121.28 201.19 C-121.27 193.12 -121.28 185.05 -121.3 176.98 C-121.32 170.03 -121.33 163.08 -121.32 156.13 C-121.32 151.99 -121.33 147.85 -121.34 143.71 C-121.35 139.8 -121.35 135.89 -121.34 131.99 C-121.33 130.57 -121.34 129.15 -121.35 127.73 C-121.42 114.77 -119.85 101.91 -115.27 89.7 C-115.02 89.01 -114.77 88.32 -114.51 87.6 C-101.11 52.06 -75.27 24.99 -40.96 9.2 C-27.97 3.61 -14.16 0.09 0 0 Z" fill="#0B423D" transform="translate(943.9609375,249.796875)"/>
<path d="M0 0 C6.46 3.78 10.11 8.39 13.03 15.19 C13.92 18.84 14.15 22.23 14.14 25.99 C14.14 27.7 14.14 27.7 14.14 29.44 C14.14 30.67 14.13 31.89 14.13 33.14 C14.13 34.4 14.13 35.66 14.12 36.96 C14.12 40.29 14.11 43.62 14.1 46.95 C14.09 50.36 14.09 53.76 14.08 57.17 C14.07 63.84 14.05 70.51 14.03 77.19 C14.71 77.18 15.39 77.17 16.09 77.15 C23.2 77.04 30.3 76.97 37.41 76.91 C40.06 76.89 42.7 76.85 45.35 76.81 C49.17 76.75 52.99 76.72 56.8 76.7 C57.98 76.67 59.15 76.65 60.36 76.62 C68.74 76.62 75.6 78.14 81.94 83.93 C87.53 89.89 89.68 96.29 89.45 104.41 C88.2 112.73 82.54 118.56 76.03 123.44 C71.57 126.04 67.61 126.31 62.51 126.3 C61.43 126.3 60.35 126.3 59.23 126.3 C58.08 126.3 56.92 126.29 55.73 126.29 C54.54 126.28 53.35 126.28 52.12 126.28 C48.32 126.28 44.52 126.26 40.72 126.25 C38.14 126.24 35.56 126.24 32.98 126.24 C26.67 126.23 20.35 126.21 14.03 126.19 C14.12 144.43 14.21 162.68 14.32 180.93 C14.37 189.4 14.42 197.87 14.45 206.34 C14.49 213.73 14.53 221.11 14.57 228.5 C14.6 232.41 14.62 236.32 14.63 240.23 C14.65 243.91 14.67 247.6 14.7 251.28 C14.71 253.27 14.72 255.26 14.72 257.24 C14.84 270.06 17.82 282.17 26.5 291.98 C32.97 297.95 38.94 301.32 47.66 302.81 C48.36 302.94 49.06 303.07 49.78 303.2 C53.99 303.94 58.13 304.39 62.41 304.62 C70.91 305.24 77.8 307.85 83.56 314.28 C88.01 320.04 89.79 325.02 89.47 332.38 C88.26 340.11 84.23 345.63 78.48 350.71 C71.95 354.64 65.24 355.72 57.72 355.62 C56.86 355.62 56 355.61 55.11 355.6 C29.5 354.95 6.13 345.47 -11.97 327.19 C-21.3 317.19 -27.98 305.01 -32.41 292.12 C-32.64 291.45 -32.88 290.78 -33.12 290.09 C-36.89 278.28 -37.27 265.74 -37.2 253.45 C-37.2 252.05 -37.2 250.65 -37.2 249.25 C-37.2 245.49 -37.19 241.74 -37.17 237.99 C-37.16 234.05 -37.16 230.11 -37.16 226.17 C-37.15 218.74 -37.13 211.3 -37.11 203.86 C-37.09 195.39 -37.08 186.91 -37.07 178.43 C-37.05 161.02 -37.01 143.6 -36.97 126.19 C-37.92 126.21 -38.87 126.24 -39.86 126.27 C-43.43 126.36 -47 126.42 -50.57 126.46 C-52.11 126.49 -53.65 126.52 -55.19 126.56 C-71.95 127.03 -71.95 127.03 -78.97 121.19 C-84.97 115.46 -88.08 109.67 -88.41 101.25 C-88.15 92.73 -84.92 87.76 -79.14 81.73 C-71 75.94 -61.98 76.83 -52.47 77 C-50.96 77.02 -49.46 77.03 -47.95 77.04 C-44.29 77.07 -40.63 77.13 -36.97 77.19 C-36.99 76.07 -36.99 76.07 -37 74.94 C-37.1 67.91 -37.18 60.88 -37.23 53.85 C-37.25 50.23 -37.29 46.62 -37.35 43 C-37.4 39.51 -37.43 36.01 -37.44 32.52 C-37.46 30.55 -37.5 28.59 -37.54 26.62 C-37.54 18.79 -36.63 12.65 -31.97 6.19 C-22.8 -2.64 -11.63 -5.9 0 0 Z" fill="#0C433D" transform="translate(1195.96875,178.8125)"/>
<path d="M0 0 C5.33 4.91 8.67 10.41 9.3 17.63 C9.51 26.11 8.26 31.28 2.62 37.64 C-5.44 44.72 -10.28 45.4 -20.94 44.89 C-25.91 44.36 -29.43 42.69 -33.63 40.02 C-49.03 30.28 -71.4 29.21 -88.88 33.12 C-105.38 37.43 -117.94 46.07 -129.94 57.89 C-130.54 58.48 -131.14 59.06 -131.75 59.66 C-145.67 74.56 -150.26 94.37 -150.2 114.11 C-150.2 115.51 -150.2 116.92 -150.21 118.32 C-150.22 121.33 -150.22 124.34 -150.22 127.34 C-150.21 132.11 -150.23 136.87 -150.24 141.63 C-150.29 155.17 -150.32 168.71 -150.32 182.24 C-150.33 189.73 -150.34 197.22 -150.38 204.71 C-150.4 209.44 -150.4 214.17 -150.39 218.9 C-150.39 221.84 -150.4 224.79 -150.42 227.74 C-150.43 229.74 -150.42 231.74 -150.4 233.75 C-150.49 243.69 -152.51 250.98 -159.3 258.39 C-165.38 263.95 -171.98 265.33 -179.99 265.23 C-186.47 264.49 -191.9 261.39 -196.32 256.64 C-202.57 248.14 -203.52 240.66 -203.44 230.23 C-203.45 228.87 -203.45 227.51 -203.46 226.15 C-203.47 222.48 -203.46 218.81 -203.45 215.14 C-203.43 211.27 -203.44 207.4 -203.44 203.53 C-203.44 197.03 -203.43 190.52 -203.41 184.02 C-203.38 176.55 -203.38 169.08 -203.39 161.6 C-203.4 154.37 -203.4 147.14 -203.38 139.9 C-203.38 136.85 -203.38 133.8 -203.38 130.74 C-203.43 86.31 -194 49.49 -162.38 16.89 C-122.17 -23.3 -47.38 -35.39 0 0 Z" fill="#0C423D" transform="translate(479.94140625,269.10546875)"/>
<path d="M0 0 C7.27 4.48 12.17 9.65 14.94 17.81 C15.19 20.57 15.19 20.57 15.2 23.64 C15.2 24.82 15.21 25.99 15.22 27.2 C15.21 28.48 15.21 29.77 15.21 31.09 C15.21 32.47 15.22 33.85 15.22 35.24 C15.24 39.03 15.24 42.83 15.24 46.63 C15.24 50.72 15.25 54.82 15.27 58.91 C15.28 66.01 15.3 73.1 15.3 80.2 C15.31 90.46 15.34 100.73 15.36 111 C15.4 127.66 15.43 144.32 15.46 160.99 C15.46 161.99 15.46 162.98 15.47 164.01 C15.47 165.01 15.47 166.01 15.47 167.04 C15.49 181.19 15.52 195.35 15.54 209.51 C15.55 211 15.55 211 15.55 212.53 C15.58 229.13 15.62 245.73 15.66 262.33 C15.68 272.57 15.7 282.81 15.71 293.05 C15.72 300.06 15.73 307.08 15.75 314.1 C15.76 318.15 15.77 322.19 15.77 326.24 C15.77 329.95 15.78 333.66 15.79 337.36 C15.79 339.34 15.79 341.32 15.79 343.29 C15.8 344.47 15.8 345.64 15.8 346.86 C15.81 347.87 15.81 348.88 15.81 349.93 C15.94 352.96 16.39 355.83 16.94 358.81 C17.79 369.37 18.14 379.14 11.39 387.79 C6.39 393.34 0.97 395.78 -6.44 396.38 C-13.82 396.08 -19.84 391.41 -24.81 386.25 C-35.57 372.85 -37.53 355.93 -37.46 339.36 C-37.46 337.97 -37.47 336.58 -37.48 335.2 C-37.49 331.43 -37.49 327.66 -37.48 323.9 C-37.48 319.82 -37.5 315.74 -37.51 311.66 C-37.53 303.68 -37.53 295.71 -37.53 287.74 C-37.53 281.26 -37.53 274.78 -37.54 268.3 C-37.54 266.43 -37.55 264.55 -37.55 262.68 C-37.55 261.75 -37.55 260.82 -37.55 259.86 C-37.57 242.27 -37.57 224.69 -37.56 207.1 C-37.56 191.02 -37.58 174.94 -37.61 158.87 C-37.64 142.33 -37.66 125.8 -37.65 109.27 C-37.65 100 -37.66 90.72 -37.68 81.45 C-37.7 73.56 -37.71 65.68 -37.69 57.79 C-37.68 53.77 -37.68 49.75 -37.7 45.72 C-37.72 42.04 -37.71 38.35 -37.69 34.67 C-37.68 32.71 -37.7 30.76 -37.72 28.8 C-37.63 19.77 -35.75 13.04 -29.75 6.16 C-29 5.55 -28.26 4.94 -27.5 4.31 C-26.76 3.68 -26.01 3.05 -25.25 2.41 C-18.48 -2.53 -7.87 -3.12 0 0 Z" fill="#0B423D" transform="translate(1371.0625,136.1875)"/>
<path d="M0 0 C5.28 2.78 9.91 7.7 11.8 13.35 C12.63 22.59 11.68 28.61 5.81 35.78 C3.53 38.37 1.18 40.87 -1.2 43.35 C-2.08 44.32 -2.08 44.32 -2.97 45.31 C-18.6 62.03 -39.49 73.27 -60.2 82.35 C-60.86 82.64 -61.52 82.93 -62.2 83.23 C-101.57 100.12 -147.4 101.73 -189.2 95.35 C-189.91 95.25 -190.62 95.15 -191.35 95.04 C-222.71 90.41 -266.03 75.38 -287.14 50.02 C-291.05 44.03 -291.86 38.35 -291.2 31.35 C-289.21 25.16 -286.15 20.1 -280.46 16.73 C-274.2 14.08 -266.65 13.63 -260.22 16.12 C-256.07 18.17 -252.17 20.66 -248.24 23.12 C-223.11 38.28 -190.25 46.38 -161.14 46.59 C-160.07 46.6 -159 46.61 -157.89 46.61 C-155.63 46.63 -153.36 46.64 -151.09 46.65 C-148.82 46.66 -146.54 46.68 -144.27 46.71 C-124.66 46.96 -106.04 45.24 -87.39 38.85 C-86.52 38.57 -85.64 38.29 -84.74 38 C-60.51 30.01 -39.32 16.19 -18.77 1.42 C-13.64 -2.09 -5.82 -1.71 0 0 Z" fill="#FA593C" transform="translate(1710.203125,544.6484375)"/>
<path d="M0 0 C0.92 0.31 1.84 0.62 2.79 0.94 C23.69 8.34 40.6 24.79 51 44 C52.76 47.9 53.2 50.7 53 55 C46.15 56.84 39.25 58.07 32.25 59.25 C30.99 59.47 29.72 59.68 28.42 59.9 C17.79 61.71 7.15 63.48 -3.49 65.25 C-15.35 67.22 -27.22 69.21 -39.08 71.23 C-40.83 71.53 -42.58 71.83 -44.33 72.13 C-57.89 74.43 -71.41 76.9 -84.91 79.53 C-92.71 81.05 -100.53 82.48 -108.38 83.75 C-109.14 83.88 -109.91 84.01 -110.7 84.14 C-115.19 84.85 -119.45 85.12 -124 85 C-125.28 61.89 -115.6 42.16 -100.75 24.94 C-90.02 13.38 -77.4 5.21 -62.75 -0.38 C-62.13 -0.61 -61.5 -0.85 -60.86 -1.1 C-41.66 -8.02 -18.88 -7.45 0 0 Z" fill="#FCFCFC" transform="translate(1606,302)"/>
<path d="M0 0 C10.54 9.3 18.22 20.35 22 34 C22 34.66 22 35.32 22 36 C13.8 38.21 5.65 39.8 -2.75 41 C-11 42.22 -19.18 43.55 -27.37 45.14 C-31.42 45.92 -35.5 46.59 -39.57 47.26 C-40.25 47.37 -40.93 47.49 -41.63 47.6 C-45.07 48.17 -48.52 48.73 -51.97 49.29 C-53.24 49.49 -54.5 49.7 -55.8 49.91 C-56.95 50.1 -58.09 50.28 -59.27 50.48 C-61.95 50.86 -61.95 50.86 -64 52 C-65.88 52.33 -67.76 52.61 -69.64 52.87 C-70.8 53.03 -71.95 53.19 -73.14 53.36 C-75.54 53.7 -77.95 54.03 -80.36 54.36 C-87.26 55.35 -93.96 56.65 -100.74 58.28 C-106.38 59.53 -112.09 60.28 -117.81 61.06 C-126.6 62.2 -126.6 62.2 -135.26 64.05 C-139.5 65.13 -143.66 65.67 -148 66.12 C-148.77 66.21 -149.55 66.3 -150.35 66.39 C-152.23 66.6 -154.12 66.8 -156 67 C-157.56 45.1 -148.04 24.46 -134 8 C-98.85 -31.87 -39.9 -34.15 0 0 Z" fill="#FBFCFC" transform="translate(709,321)"/>
<path d="M0 0 C0.33 0.99 0.66 1.98 1 3 C-3.62 7.62 -8.24 12.24 -13 17 C-13.99 16.67 -14.98 16.34 -16 16 C-10.72 10.72 -5.44 5.44 0 0 Z" fill="#144945" transform="translate(1481,280)"/>
<path d="M0 0 C1.29 0.01 2.58 0.02 3.91 0.03 C7.07 0.05 10.22 0.08 13.38 0.12 C13.38 0.46 13.38 0.79 13.38 1.12 C12.62 1.15 11.86 1.18 11.08 1.2 C7.64 1.32 4.19 1.44 0.75 1.56 C-1.03 1.62 -1.03 1.62 -2.86 1.68 C-4.01 1.72 -5.16 1.77 -6.35 1.81 C-7.94 1.86 -7.94 1.86 -9.56 1.92 C-12.66 2.13 -15.6 2.44 -18.62 3.12 C-18.95 3.79 -19.29 4.45 -19.62 5.12 C-22.62 4.12 -22.62 4.12 -24.62 2.12 C-16.39 -0.01 -8.47 -0.11 0 0 Z" fill="#BECDCD" transform="translate(1575.625,296.875)"/>
<path d="M0 0 C-2.71 1.35 -5.01 1.07 -8 1 C-8 1.99 -8 2.98 -8 4 C-8.87 3.81 -9.73 3.63 -10.62 3.44 C-14.11 2.99 -16.56 3.38 -20 4 C-22.67 4.09 -25.32 4.05 -28 4 C-28 3.67 -28 3.34 -28 3 C-24.09 2.3 -20.17 1.62 -16.25 0.94 C-14.58 0.64 -14.58 0.64 -12.88 0.33 C-11.81 0.15 -10.74 -0.03 -9.64 -0.22 C-8.16 -0.48 -8.16 -0.48 -6.66 -0.75 C-4.1 -0.99 -2.42 -0.8 0 0 Z" fill="#507975" transform="translate(600,381)"/>
<path d="M0 0 C0.66 0.33 1.32 0.66 2 1 C1.56 1.5 1.13 1.99 0.68 2.5 C-3.24 6.98 -7.14 11.48 -11 16 C-11.99 15.34 -12.98 14.68 -14 14 C-9.38 9.38 -4.76 4.76 0 0 Z" fill="#1A4E4B" transform="translate(869,280)"/>
<path d="M0 0 C0.66 0.33 1.32 0.66 2 1 C1.55 1.41 1.09 1.82 0.62 2.25 C-1.07 3.89 -1.07 3.89 -1.88 5.88 C-3.42 8.79 -5.65 10.71 -8 13 C-9.03 14.31 -10.04 15.64 -11 17 C-11.66 16.67 -12.32 16.34 -13 16 C-8.81 10.53 -4.53 5.19 0 0 Z" fill="#E2EAEA" transform="translate(900,321)"/>
<path d="M0 0 C-1.14 1.52 -1.14 1.52 -3 3 C-5.7 3.07 -5.7 3.07 -8.69 2.69 C-10.18 2.51 -10.18 2.51 -11.7 2.32 C-12.46 2.22 -13.22 2.11 -14 2 C-14 1.67 -14 1.34 -14 1 C-12.04 0.64 -10.08 0.29 -8.12 -0.06 C-7.03 -0.26 -5.94 -0.46 -4.82 -0.66 C-2 -1 -2 -1 0 0 Z M-12 3 C-10.35 3 -8.7 3 -7 3 C-7 3.33 -7 3.66 -7 4 C-8.65 4 -10.3 4 -12 4 C-12 3.67 -12 3.34 -12 3 Z" fill="#C2D1D1" transform="translate(766,399)"/>
<path d="M0 0 C1.75 -0.05 3.5 -0.09 5.25 -0.12 C6.22 -0.15 7.2 -0.17 8.2 -0.2 C11.02 0 12.61 0.55 15 2 C14 3 14 3 11.93 3.1 C11.11 3.09 10.29 3.07 9.44 3.06 C8.61 3.05 7.78 3.04 6.93 3.04 C6.3 3.02 5.66 3.01 5 3 C5 2.67 5 2.34 5 2 C3.35 1.67 1.7 1.34 0 1 C0 0.67 0 0.34 0 0 Z" fill="#225954" transform="translate(630,247)"/>
<path d="M0 0 C-2.57 1.62 -3.68 2.04 -6.75 1.62 C-7.49 1.42 -8.23 1.21 -9 1 C-9.33 1.66 -9.66 2.32 -10 3 C-11.65 2.67 -13.3 2.34 -15 2 C-15 1.67 -15 1.34 -15 1 C-13.25 0.64 -11.5 0.28 -9.75 -0.06 C-8.29 -0.36 -8.29 -0.36 -6.8 -0.66 C-4.13 -0.98 -2.51 -0.86 0 0 Z M-8 2 C-4 3 -4 3 -4 3 Z" fill="#B4C7C6" transform="translate(734,405)"/>
<path d="M0 0 C0.66 0.33 1.32 0.66 2 1 C-0.31 3.64 -2.62 6.28 -5 9 C-5.99 8.67 -6.98 8.34 -8 8 C-5.36 5.36 -2.72 2.72 0 0 Z" fill="#164A46" transform="translate(325,279)"/>
<path d="M0 0 C0 0.66 0 1.32 0 2 C-6.62 3.25 -6.62 3.25 -10 1 C-6.62 -0.04 -3.52 -0.08 0 0 Z M-10 3 C-7 4 -7 4 -7 4 Z" fill="#285D59" transform="translate(935,251)"/>
<path d="M0 0 C0.66 0.99 1.32 1.98 2 3 C0.35 5.64 -1.3 8.28 -3 11 C-3.66 10.67 -4.32 10.34 -5 10 C-3.35 6.7 -1.7 3.4 0 0 Z" fill="#184E4B" transform="translate(521,318)"/>
<path d="M0 0 C0.66 0.33 1.32 0.66 2 1 C-1.17 4.54 -3.17 6.59 -8 7 C-5.42 4.35 -3.08 2.06 0 0 Z" fill="#FC6549" transform="translate(1680,554)"/>
<path d="M0 0 C2.31 0.33 4.62 0.66 7 1 C7 1.33 7 1.66 7 2 C5.25 2.36 3.5 2.72 1.75 3.06 C0.29 3.36 0.29 3.36 -1.2 3.66 C-3.87 3.98 -5.49 3.86 -8 3 C-7.34 3 -6.68 3 -6 3 C-5.67 2.34 -5.34 1.68 -5 1 C-3.35 1.33 -1.7 1.66 0 2 C0 1.34 0 0.68 0 0 Z" fill="#46706F" transform="translate(1625,408)"/>
<path d="M0 0 C2.31 0.33 4.62 0.66 7 1 C7 1.33 7 1.66 7 2 C5.25 2.36 3.5 2.72 1.75 3.06 C0.29 3.36 0.29 3.36 -1.2 3.66 C-3.87 3.98 -5.49 3.86 -8 3 C-7.34 3 -6.68 3 -6 3 C-5.67 2.34 -5.34 1.68 -5 1 C-3.35 1.33 -1.7 1.66 0 2 C0 1.34 0 0.68 0 0 Z" fill="#4A736F" transform="translate(1654,403)"/>
<path d="M0 0 C4.79 0.81 6.14 3.26 9 7 C6 7 6 7 4.39 5.47 C3.87 4.82 3.35 4.17 2.81 3.5 C2.28 2.85 1.75 2.2 1.21 1.53 C0.81 1.03 0.41 0.52 0 0 Z" fill="#2B5855" transform="translate(1669,283)"/>
<path d="M0 0 C1.21 3.64 0.67 4.33 -0.94 7.69 C-1.32 8.5 -1.7 9.3 -2.09 10.14 C-2.39 10.75 -2.69 11.37 -3 12 C-3.66 11.34 -4.32 10.68 -5 10 C-3.35 6.7 -1.7 3.4 0 0 Z" fill="#154A48" transform="translate(1449,319)"/>
<path d="M0 0 C0 3.99 -1.29 5.14 -4 8 C-6.75 9.31 -6.75 9.31 -9 10 C-8.06 8.89 -7.13 7.79 -6.19 6.69 C-5.67 6.07 -5.14 5.46 -4.61 4.82 C-3.13 3.15 -1.6 1.56 0 0 Z" fill="#E6EEED" transform="translate(354,322)"/>
<path d="M0 0 C0.66 0.33 1.32 0.66 2 1 C1.36 1.1 0.72 1.21 0.06 1.31 C-0.62 1.54 -1.3 1.77 -2 2 C-2.33 2.99 -2.66 3.98 -3 5 C-5.97 4.5 -5.97 4.5 -9 4 C-6.06 2.48 -3.13 1.07 0 0 Z" fill="#386863" transform="translate(1612,480)"/>
<path d="M0 0 C5.75 0.75 5.75 0.75 8 3 C4.71 4.1 3.29 3.8 0 3 C0 2.01 0 1.02 0 0 Z" fill="#2D5C57" transform="translate(1538,480)"/>
<path d="M0 0 C-0.99 1.32 -1.98 2.64 -3 4 C-3.99 3.67 -4.98 3.34 -6 3 C-6 2.01 -6 1.02 -6 0 C-3.51 -1.25 -2.59 -0.78 0 0 Z" fill="#E3EAEA" transform="translate(1497,435)"/>
<path d="M0 0 C4.39 1.46 4.88 3.98 7 8 C3.64 6.61 1.93 5.08 0 2 C0 1.34 0 0.68 0 0 Z" fill="#154542" transform="translate(563,441)"/>
<path d="M0 0 C3.37 0.55 5.08 1.05 8 3 C7.67 3.66 7.34 4.32 7 5 C4.06 4.19 4.06 4.19 1 3 C0.67 2.01 0.34 1.02 0 0 Z" fill="#1B534E" transform="translate(677,300)"/>
</svg>
