<?xml version="1.0" encoding="UTF-8"?>
<svg version="1.1" xmlns="http://www.w3.org/2000/svg" width="1983" height="793">
<path d="M0 0 C0.69722168 0.25797363 1.39444336 0.51594727 2.11279297 0.78173828 C37.42714294 14.09332836 64.18006797 38.89172389 79.90820312 73.15600586 C83.21795517 80.59133166 85.91059379 88.12535347 88 96 C88.22558594 96.80179687 88.45117188 97.60359375 88.68359375 98.4296875 C91.17077105 108.61853796 92.26005511 121.5943207 86.68359375 130.8515625 C79.83696252 139.58856291 72.22006596 143.66317259 61.3125 145.5625 C60.61116943 145.68689453 59.90983887 145.81128906 59.18725586 145.93945312 C57.12632493 146.30241393 55.06374821 146.6534597 53 147 C51.97390625 147.17402344 50.9478125 147.34804688 49.890625 147.52734375 C47.99655112 147.84389477 46.10201177 148.15767249 44.20703125 148.46875 C40.21842842 149.12946862 36.23345054 149.80895361 32.25 150.5 C31.55269775 150.61859375 30.85539551 150.7371875 30.13696289 150.859375 C26.67617609 151.46346348 23.27427558 152.15645853 19.87109375 153.03125 C16.50861767 153.87271727 13.23890043 154.50354871 9.8125 155 C8.69875 155.165 7.585 155.33 6.4375 155.5 C5.303125 155.665 4.16875 155.83 3 156 C-10.16716623 157.80891494 -10.16716623 157.80891494 -23.0546875 160.94921875 C-28.18753645 162.43674227 -33.47071051 163.05413811 -38.75 163.8125 C-51.58709986 165.71865634 -64.32369528 168.04123431 -77.07373047 170.45361328 C-80.9182436 171.17145246 -84.77025687 171.83980065 -88.625 172.5 C-93.50233142 173.34527457 -98.35348929 174.2653765 -103.203125 175.2578125 C-104.85513916 175.59522461 -104.85513916 175.59522461 -106.54052734 175.93945312 C-108.69826216 176.38307001 -110.8549259 176.83194277 -113.01025391 177.28710938 C-119.66342475 178.65722507 -126.22270939 179.53703835 -133 180 C-124.5671824 195.39628061 -114.63383489 207.14415218 -100 217 C-99.18015625 217.56332031 -98.3603125 218.12664062 -97.515625 218.70703125 C-76.07135149 232.54769797 -48.77199518 234.79318687 -24.2421875 229.96875 C-7.88046194 226.40961509 7.14244723 218.8050772 20.09375 208.3359375 C27.31632984 202.53069187 34.11276007 197.41977666 43.78515625 197.6796875 C50.10045577 198.59301124 56.54548384 201.41821195 61 206 C65.68459196 212.57978302 67.85511982 217.86414567 67 226 C65.17989021 233.82866501 62.20829544 238.97890491 56 244 C55.05898438 244.76957031 54.11796875 245.53914062 53.1484375 246.33203125 C35.96716128 260.08346814 16.45451511 271.49059312 -5 277 C-5.74443359 277.19464844 -6.48886719 277.38929688 -7.25585938 277.58984375 C-20.6795978 280.91050984 -34.05854741 281.39347557 -47.8125 281.4375 C-48.62904053 281.4436734 -49.44558105 281.4498468 -50.28686523 281.45620728 C-65.5432793 281.53035869 -80.68163398 280.06515815 -95.1875 275.0625 C-96.46935181 274.62623291 -96.46935181 274.62623291 -97.77709961 274.18115234 C-113.22082285 268.6528665 -128.55786112 260.77080679 -141 250 C-142.48113281 248.72382812 -142.48113281 248.72382812 -143.9921875 247.421875 C-171.28567003 223.38102865 -190.23651975 190.59486024 -194 154 C-194.308456 148.45471581 -194.38957042 142.92787184 -194.375 137.375 C-194.37478851 136.62809906 -194.37457703 135.88119812 -194.37435913 135.11166382 C-194.34110127 123.32119897 -193.4161599 112.32500068 -190 101 C-189.50886719 99.18822266 -189.50886719 99.18822266 -189.0078125 97.33984375 C-178.74941338 62.93302336 -156.25451875 32.2917049 -126 13 C-124.94554687 12.32195312 -123.89109375 11.64390625 -122.8046875 10.9453125 C-86.64065621 -11.0266876 -39.53267961 -14.66362938 0 0 Z " fill="#0B423D" transform="translate(695,255)"/>
<path d="M0 0 C0.83845459 0.25910156 1.67690918 0.51820313 2.54077148 0.78515625 C37.43252927 11.89444329 67.18567596 34.63952706 84.3034668 67.25439453 C92.85420513 84.16553296 103.2816916 107.71035553 98.40234375 126.91015625 C95.47112982 135.3231209 89.93291085 142.06247814 82.0625 146.3125 C74.96502403 149.21872545 67.46639424 150.57782184 59.96289062 151.99243164 C57.96065368 152.37062659 55.96077476 152.75972818 53.9609375 153.15039062 C46.16046037 154.65429287 38.37748926 155.83786862 30.49560547 156.84106445 C25.84418324 157.47979979 21.27549632 158.38756708 16.6875 159.375 C11.09011831 160.5718964 5.59497313 161.56275703 -0.11181641 162.06420898 C-2.03211643 162.22539041 -2.03211643 162.22539041 -3.9375 163.3125 C-6.23559536 163.62119938 -8.53470129 163.82133648 -10.84375 164.03125 C-12.99193933 164.204655 -12.99193933 164.204655 -14.9375 165.3125 C-17.58142222 165.76175429 -20.22222261 166.17244176 -22.875 166.5625 C-38.02375069 168.87325106 -53.16840554 171.52896481 -68.125 174.875 C-75.3995 176.49460566 -82.7489137 177.63340949 -90.1027832 178.82568359 C-96.7957977 179.92154781 -103.38420824 181.22695382 -110 182.71875 C-114.28614201 183.58509785 -118.57796726 184.02119482 -122.9375 184.3125 C-119.4199185 191.09818914 -115.7465611 197.36814331 -110.9375 203.3125 C-110.31681641 204.15167969 -110.31681641 204.15167969 -109.68359375 205.0078125 C-96.80581524 221.53749834 -73.50347901 232.22121908 -53.24707031 235.06933594 C-21.02796191 238.46153805 7.54116997 229.18686614 32.74829102 209.29833984 C40.73682223 203.02938257 48.05863335 202.17242896 58.0625 203.3125 C65.78936286 205.96545683 70.38078512 211.18002652 74.0625 218.3125 C76.13412507 224.52737521 75.51111152 230.97833098 73.2109375 237.06640625 C62.30933716 258.38756338 31.2014492 271.35142704 9.66674805 278.36450195 C-24.39204296 288.95439684 -65.11756342 287.45775343 -97.9375 273.3125 C-98.63343262 273.02004395 -99.32936523 272.72758789 -100.04638672 272.42626953 C-116.11445415 265.59164234 -129.47651476 256.48129662 -141.9375 244.3125 C-142.86175781 243.46171875 -143.78601562 242.6109375 -144.73828125 241.734375 C-163.06362396 224.41990693 -175.07695247 200.61360254 -180.9375 176.3125 C-181.20385254 175.30743408 -181.47020508 174.30236816 -181.74462891 173.2668457 C-184.00259235 164.05539638 -184.40169523 155.29221795 -184.32861328 145.8449707 C-184.31253985 143.38110831 -184.32854743 140.91889098 -184.34765625 138.45507812 C-184.36099756 128.34527501 -183.31668383 119.14470305 -180.9375 109.3125 C-180.76541016 108.50466064 -180.59332031 107.69682129 -180.41601562 106.86450195 C-174.8927557 81.00919763 -160.66893682 57.42235414 -142.29833984 38.70849609 C-141.07941522 37.45808149 -139.89103261 36.17806337 -138.70703125 34.89453125 C-128.07744606 23.62677209 -114.69904046 15.23337185 -100.9375 8.3125 C-100.3074707 7.99297363 -99.67744141 7.67344727 -99.02832031 7.34423828 C-69.85008627 -7.03442265 -31.0118577 -9.81623361 0 0 Z " fill="#0B433D" transform="translate(1613.9375,250.6875)"/>
<path d="M0 0 C1.1232518 -0.00855011 1.1232518 -0.00855011 2.26919556 -0.01727295 C3.85083631 -0.02667245 5.43249621 -0.0332367 7.01416016 -0.03710938 C9.37309514 -0.0467083 11.73111653 -0.07773414 14.08984375 -0.109375 C28.29602167 -0.20991103 41.92221203 1.6210939 55.4140625 6.265625 C56.28345459 6.56162598 57.15284668 6.85762695 58.04858398 7.16259766 C72.26759127 12.21498453 85.51773315 19.434695 97.0390625 29.203125 C97.56161621 29.64350098 98.08416992 30.08387695 98.62255859 30.53759766 C119.1300963 48.01733999 132.36855145 70.48752236 139.7890625 96.265625 C139.98798096 96.94874756 140.18689941 97.63187012 140.3918457 98.33569336 C143.55057453 109.93667039 144.33820071 121.68082068 144.32958984 133.65307617 C144.33559447 135.03629409 144.34240434 136.41950871 144.34994507 137.80271912 C144.36740286 141.51327256 144.37229139 145.22373347 144.37357664 148.93432403 C144.37500889 151.26053472 144.37929824 153.58672265 144.38457108 155.91292763 C144.40299506 164.04995823 144.41125017 172.18692384 144.40966797 180.32397461 C144.40846439 187.87678982 144.42962866 195.42932032 144.4611553 202.98206347 C144.48737999 209.49967469 144.49803288 216.01719311 144.49675715 222.53485662 C144.49624991 226.41340262 144.50180215 230.29169419 144.52311325 234.170187 C144.54260439 237.81563109 144.54254699 241.4605804 144.52807999 245.10604286 C144.52502381 247.06355846 144.54158623 249.02107474 144.55895996 250.97851562 C144.49659477 259.822956 143.2185238 268.26945812 137.8515625 275.578125 C131.43306037 281.56872699 124.31340836 284.6833774 115.5390625 284.5390625 C107.97996361 283.52330859 102.38106456 279.16970722 97.51171875 273.55859375 C92.64448444 265.77360094 92.61533903 258.59653724 92.67016602 249.63720703 C92.66769408 248.27608437 92.66385169 246.91496362 92.65875244 245.55384827 C92.65044722 242.63411214 92.65119451 239.7145713 92.65893745 236.79483414 C92.67059577 232.16007867 92.65829201 227.52557007 92.64231873 222.89083862 C92.606239 211.37224816 92.59987995 199.85366388 92.60241699 188.33502197 C92.60413703 179.3915951 92.59673645 170.44837242 92.56243843 161.5050019 C92.54852276 157.6613471 92.5423837 153.8180342 92.55548286 149.97436905 C93.05350608 121.98150845 93.05350608 121.98150845 84.2890625 95.765625 C83.77472656 94.79399414 83.77472656 94.79399414 83.25 93.80273438 C75.0583053 78.71985125 64.58839445 68.83352418 50.0390625 60.203125 C49.1934375 59.69523437 48.3478125 59.18734375 47.4765625 58.6640625 C30.4644853 49.2959254 7.13468723 47.98237924 -11.390625 53.29296875 C-15.39175228 54.7097813 -19.18240596 56.26745621 -22.9609375 58.203125 C-23.79882812 58.60015625 -24.63671875 58.9971875 -25.5 59.40625 C-44.13656975 68.75138872 -58.33024182 85.4798012 -64.98929596 105.18940353 C-68.19558569 115.13428937 -69.39584942 124.11368408 -69.34570312 134.56542969 C-69.34981925 135.96307312 -69.35528623 137.36071311 -69.36198425 138.75834656 C-69.37361556 141.74241317 -69.37622771 144.72629531 -69.37162781 147.71038055 C-69.36476192 152.43512745 -69.38077942 157.15963565 -69.40002441 161.88433838 C-69.44090896 172.75913407 -69.45241899 183.63392187 -69.46355438 194.50878143 C-69.47407998 204.49483312 -69.49090993 214.48076842 -69.53165007 224.46674848 C-69.54993982 229.15786803 -69.55392333 233.84870983 -69.54671478 238.53985643 C-69.54518782 241.46075534 -69.55600777 244.38151636 -69.57009315 247.3023777 C-69.57597048 249.29028019 -69.56701867 251.27820944 -69.55754089 253.26609802 C-69.62476809 263.07545002 -71.04621033 270.14154532 -77.96875 277.4375 C-84.63005991 283.34124918 -91.7258136 283.91420276 -100.43359375 283.64453125 C-108.29341409 282.66096569 -112.50327534 278.04731205 -117.515625 272.265625 C-120.53654069 267.95469666 -121.21180429 264.18722196 -121.22163391 258.97697449 C-121.22871872 257.72268646 -121.23580353 256.46839844 -121.24310303 255.17610168 C-121.24080928 253.79342615 -121.23829959 252.41075096 -121.2355957 251.02807617 C-121.23994524 249.56563049 -121.2451292 248.1031871 -121.25108337 246.64074707 C-121.26447009 242.67106149 -121.26505157 238.70147117 -121.26252007 234.73176742 C-121.26144845 231.40764776 -121.26633949 228.08354721 -121.2711255 224.75943166 C-121.28222317 216.90316447 -121.28265901 209.04694507 -121.27661133 201.19067383 C-121.27059371 193.1207145 -121.28282537 185.0509305 -121.3041814 176.98100108 C-121.32189041 170.03037801 -121.32778354 163.07981023 -121.32454365 156.12916547 C-121.32274271 151.98824988 -121.3252451 147.84745887 -121.33925819 143.70656395 C-121.35198119 139.80028494 -121.3497583 135.8942746 -121.33684731 131.98799896 C-121.33451167 130.56760117 -121.33710547 129.14718363 -121.34547043 127.72680855 C-121.4161865 114.7662083 -119.84809663 101.91128638 -115.2734375 89.703125 C-115.01997559 89.00936768 -114.76651367 88.31561035 -114.50537109 87.60083008 C-101.10921896 52.0612483 -75.27005987 24.99252216 -40.9609375 9.203125 C-27.97191334 3.608967 -14.16424247 0.08624147 0 0 Z " fill="#0B423D" transform="translate(943.9609375,249.796875)"/>
<path d="M0 0 C6.46252512 3.77809161 10.11123319 8.39351666 13.03125 15.1875 C13.91979256 18.84322427 14.15310472 22.23101942 14.14477539 25.98754883 C14.14466209 27.69875664 14.14466209 27.69875664 14.14454651 29.4445343 C14.13938522 30.66553329 14.13422394 31.88653229 14.12890625 33.14453125 C14.1274913 34.40263107 14.12607635 35.6607309 14.12461853 36.95695496 C14.11997573 40.28928529 14.11100228 43.62154632 14.09991455 46.95385742 C14.08965503 50.35920617 14.08511121 53.7645621 14.08007812 57.16992188 C14.0690583 63.84246698 14.052327 70.51497949 14.03125 77.1875 C14.71061615 77.17639694 15.3899823 77.16529388 16.0899353 77.15385437 C23.19572734 77.04276726 30.30127051 76.96762813 37.40771484 76.9128418 C40.05560332 76.88778241 42.70342322 76.85372565 45.35107422 76.81030273 C49.16911804 76.74927721 52.98624294 76.72120268 56.8046875 76.69921875 C57.97800629 76.67341232 59.15132507 76.6476059 60.36019897 76.62101746 C68.74135567 76.61819242 75.60353562 78.14425122 81.93807983 83.92875671 C87.52718073 89.8942196 89.68334373 96.28991736 89.44921875 104.40625 C88.19759538 112.73480927 82.53715735 118.55806949 76.03125 123.4375 C71.56847846 126.0407834 67.60699737 126.31297013 62.5065918 126.30102539 C61.42584885 126.30094986 60.3451059 126.30087433 59.23161316 126.30079651 C58.0762355 126.29563522 56.92085785 126.29047394 55.73046875 126.28515625 C54.53895706 126.2837413 53.34744537 126.28232635 52.11982727 126.28086853 C48.31944249 126.27527728 44.51911693 126.26272632 40.71875 126.25 C38.13997481 126.24498387 35.5611987 126.24042116 32.98242188 126.23632812 C26.66534443 126.22531071 20.34830145 126.20858122 14.03125 126.1875 C14.11521615 144.43352568 14.21037389 162.67945725 14.31877708 180.925354 C14.36885335 189.39764611 14.41529678 197.86992878 14.453125 206.34228516 C14.48611355 213.72862403 14.52598251 221.1148886 14.57404006 228.50114536 C14.59923694 232.41043829 14.62103816 236.31968236 14.63459396 240.22903442 C14.64747637 243.91278834 14.6695966 247.59637413 14.69863319 251.28003502 C14.71194749 253.26802191 14.71561849 255.25606616 14.71894836 257.24409485 C14.83840822 270.05733598 17.8243565 282.16674842 26.50390625 291.984375 C32.96522401 297.94866832 38.94151194 301.31857503 47.65625 302.8125 C48.3570166 302.94019775 49.0577832 303.06789551 49.77978516 303.19946289 C53.99135213 303.93627111 58.13270869 304.38696596 62.40625 304.625 C70.91447263 305.23685319 77.79710944 307.8523597 83.55859375 314.28125 C88.01016882 320.04350102 89.78870683 325.02189246 89.47265625 332.3828125 C88.25707492 340.10659474 84.23335265 345.62824831 78.484375 350.71484375 C71.94620486 354.63982805 65.24296933 355.72112472 57.71875 355.625 C56.85918701 355.61670166 55.99962402 355.60840332 55.11401367 355.59985352 C29.50065855 354.94525117 6.13318628 345.47383631 -11.96875 327.1875 C-21.29841995 317.19267535 -27.98314592 305.00641857 -32.40625 292.125 C-32.64102051 291.4546875 -32.87579102 290.784375 -33.11767578 290.09375 C-36.88863471 278.28124207 -37.26517008 265.73890394 -37.19580078 253.44946289 C-37.19523461 252.04825346 -37.19555722 250.64704344 -37.19668579 249.24583435 C-37.1972523 245.49472219 -37.18561374 241.74374174 -37.17153788 237.99265981 C-37.15891154 234.05292915 -37.15785075 230.11319443 -37.15548706 226.17344666 C-37.14930687 218.7365644 -37.13294366 211.29974197 -37.11278808 203.86288589 C-37.09032039 195.38628697 -37.0794085 186.90968498 -37.06939721 178.43306363 C-37.04857376 161.01784133 -37.01346621 143.60267702 -36.96875 126.1875 C-37.92128662 126.21368408 -38.87382324 126.23986816 -39.85522461 126.2668457 C-43.42773457 126.35812429 -47.00014404 126.41502643 -50.57348633 126.4621582 C-52.1127258 126.48712755 -53.65184885 126.52111614 -55.19067383 126.56469727 C-71.94625941 127.02695782 -71.94625941 127.02695782 -78.96875 121.1875 C-84.97352214 115.46431437 -88.07827426 109.67157055 -88.40625 101.25 C-88.15117237 92.726156 -84.92308459 87.75624966 -79.140625 81.73046875 C-70.99684742 75.94487137 -61.98085315 76.83401839 -52.46875 77 C-50.96355503 77.0150714 -49.45834549 77.02875547 -47.953125 77.04101562 C-44.29136059 77.07383313 -40.63014979 77.12548011 -36.96875 77.1875 C-36.98540459 76.0744902 -36.98540459 76.0744902 -37.00239563 74.93899536 C-37.10304753 67.90788049 -37.17894114 60.87701984 -37.22781086 53.8453846 C-37.25378134 50.23124299 -37.28894409 46.61770218 -37.34594727 43.00390625 C-37.400723 39.50900338 -37.43026462 36.01467422 -37.44313622 32.51937485 C-37.45671899 30.55301721 -37.4956784 28.58688682 -37.53523254 26.62088013 C-37.53765626 18.78786857 -36.62783959 12.65496425 -31.96875 6.1875 C-22.80202115 -2.63799015 -11.63431371 -5.89908864 0 0 Z " fill="#0C433D" transform="translate(1195.96875,178.8125)"/>
<path d="M0 0 C5.33040174 4.90558794 8.66774839 10.40942055 9.296875 17.62890625 C9.50561574 26.1103722 8.26269814 31.27964424 2.62109375 37.64453125 C-5.43965645 44.72226314 -10.28348386 45.4040185 -20.94140625 44.89453125 C-25.90732556 44.359335 -29.43056622 42.68813904 -33.62890625 40.01953125 C-49.02855251 30.28466986 -71.39686282 29.21371291 -88.88256836 33.12353516 C-105.38201562 37.42949339 -117.93847424 46.0683729 -129.94140625 57.89453125 C-130.53824219 58.47847656 -131.13507813 59.06242187 -131.75 59.6640625 C-145.66740762 74.56210047 -150.25954785 94.37324217 -150.19677734 114.10571289 C-150.19953305 115.51128847 -150.20321644 116.91686249 -150.20774841 118.32243347 C-150.21580966 121.3299629 -150.21804181 124.33741821 -150.21580124 127.34495735 C-150.21294907 132.10759081 -150.22738947 136.87007823 -150.24478149 141.63267517 C-150.29163151 155.16891317 -150.31575066 168.70513949 -150.32226562 182.24145508 C-150.3260229 189.73228052 -150.34409966 197.22293881 -150.37735999 204.71369261 C-150.39749856 209.44138206 -150.39998239 214.16863828 -150.38907981 218.89635289 C-150.38646166 221.8435694 -150.40052908 224.79053652 -150.41916084 227.73768806 C-150.42696624 229.74091989 -150.41508939 231.74419865 -150.40248108 233.74740601 C-150.49306342 243.68750363 -152.50798823 250.98300424 -159.296875 258.390625 C-165.37828249 263.95200715 -171.97585368 265.33069944 -179.9921875 265.234375 C-186.46931878 264.48800358 -191.89957117 261.3934592 -196.31640625 256.64453125 C-202.56667893 248.13921186 -203.52338625 240.66129748 -203.44311523 230.23095703 C-203.44690567 228.87130679 -203.45241166 227.51166043 -203.45948792 226.15202332 C-203.47337891 222.47974388 -203.462312 218.80793648 -203.4457767 215.13568354 C-203.43183166 211.26752595 -203.43839804 207.3993932 -203.44190979 203.53121948 C-203.44460773 197.02659604 -203.43118341 190.52215751 -203.40795898 184.01757812 C-203.38146385 176.54628121 -203.37956793 169.07529546 -203.39134735 161.60396779 C-203.40221891 154.37074395 -203.39585815 147.13763033 -203.38179207 139.90441513 C-203.3761015 136.84989626 -203.37605957 133.79545993 -203.38085747 130.74094009 C-203.43257872 86.30743053 -194.00226698 49.49308104 -162.37890625 16.89453125 C-122.17171334 -23.30174618 -47.37961875 -35.39489225 0 0 Z " fill="#0C423D" transform="translate(479.94140625,269.10546875)"/>
<path d="M0 0 C7.26647853 4.48357186 12.17349639 9.65316756 14.9375 17.8125 C15.19115835 20.57461828 15.19115835 20.57461828 15.19641972 23.64279842 C15.20326851 24.81599099 15.2101173 25.98918356 15.21717364 27.19792742 C15.21455678 28.48273817 15.21193993 29.76754892 15.20924377 31.09129333 C15.21353109 32.47314348 15.21869446 33.85499114 15.22465843 35.23683506 C15.23852577 39.03350135 15.24001475 42.83008752 15.23951519 46.62677538 C15.24115192 50.72160974 15.25427746 54.81640887 15.26605225 58.91122437 C15.28492391 66.00694585 15.29663037 73.10265012 15.30359077 80.19839287 C15.31375776 90.46419361 15.33581928 100.72994228 15.36097669 110.99571598 C15.40158188 127.65964933 15.43403969 144.32358766 15.46069336 160.98754883 C15.46229066 161.98500341 15.46388796 162.98245798 15.46553367 164.01013846 C15.46713257 165.00884219 15.46873147 166.00754591 15.47037882 167.03651339 C15.49306281 181.19337318 15.51769588 195.35022779 15.54467773 209.50708008 C15.54752195 211.0009863 15.54752195 211.0009863 15.55042363 212.52507245 C15.58219114 229.1251494 15.61794166 245.72521643 15.65571922 262.32528073 C15.6787666 272.56643089 15.69771805 282.80757428 15.71138596 293.04874135 C15.72090853 300.06448081 15.73374527 307.08020888 15.74919481 314.09593778 C15.75796644 318.14522538 15.76506462 322.19449888 15.76783562 326.24379539 C15.77038699 329.95032421 15.77745491 333.65681589 15.78810786 337.36333001 C15.7925886 339.33999166 15.79216486 341.31666254 15.79156977 343.29332918 C15.79581082 344.46912949 15.80005186 345.64492981 15.80442142 346.85636044 C15.80599532 347.86902224 15.80756922 348.88168404 15.80919081 349.92503256 C15.9439276 352.95714668 16.3949338 355.82886103 16.9375 358.8125 C17.79017544 369.36568167 18.13652503 379.13932103 11.39453125 387.79296875 C6.39201471 393.34496079 0.96796264 395.77526183 -6.4375 396.375 C-13.82395109 396.08208901 -19.84177721 391.40685117 -24.8125 386.25 C-35.57424491 372.84858181 -37.52739799 355.93474076 -37.45690918 339.358078 C-37.46181358 337.970446 -37.46801045 336.58281809 -37.47536707 335.19519693 C-37.49159171 331.42880308 -37.48948498 327.66262092 -37.4839921 323.89620459 C-37.48130028 319.81645885 -37.49589309 315.73676686 -37.50808716 311.65704346 C-37.52904798 303.68470386 -37.53368761 295.71243714 -37.53189927 287.74007323 C-37.53058778 281.2592913 -37.53441544 274.77853197 -37.54182434 268.29775429 C-37.54392366 266.42578151 -37.54602126 264.55380873 -37.54811716 262.68183595 C-37.54916069 261.74993903 -37.55020422 260.81804212 -37.55127937 259.8579059 C-37.57014142 242.27209514 -37.56914294 224.68632618 -37.56231004 207.1005095 C-37.55672825 191.02266882 -37.57759427 174.94498716 -37.61067051 158.86718365 C-37.64441728 142.33456536 -37.65957524 125.80202327 -37.65495348 109.2693699 C-37.652711 99.99683961 -37.65792075 90.72445658 -37.68284607 81.4519558 C-37.70387105 73.5638762 -37.70743851 65.67602477 -37.68854648 57.78793576 C-37.67939893 53.76628561 -37.67821563 49.7450608 -37.69890213 45.72344398 C-37.71765063 42.03782636 -37.71306648 38.35298133 -37.69035631 34.66739277 C-37.68421146 32.71203494 -37.70253072 30.75664671 -37.72189283 28.80137509 C-37.63130469 19.76509321 -35.75027358 13.04131288 -29.74609375 6.15625 C-29.00488281 5.5478125 -28.26367188 4.939375 -27.5 4.3125 C-26.75621094 3.6834375 -26.01242187 3.054375 -25.24609375 2.40625 C-18.48136054 -2.53115814 -7.86636252 -3.11819776 0 0 Z " fill="#0B423D" transform="translate(1371.0625,136.1875)"/>
<path d="M0 0 C5.27747048 2.78136958 9.91205933 7.69711548 11.796875 13.3515625 C12.63194547 22.59209636 11.67888463 28.60773148 5.80859375 35.78125 C3.5319281 38.36854878 1.18307202 40.86527332 -1.203125 43.3515625 C-2.07710937 44.32029297 -2.07710937 44.32029297 -2.96875 45.30859375 C-18.60255608 62.03394935 -39.48913532 73.26608864 -60.203125 82.3515625 C-60.8636084 82.64160156 -61.5240918 82.93164062 -62.20458984 83.23046875 C-101.57384396 100.1161162 -147.40183875 101.72527003 -189.203125 95.3515625 C-189.91065918 95.25004883 -190.61819336 95.14853516 -191.34716797 95.04394531 C-222.70831217 90.40929346 -266.03441714 75.37715323 -287.14453125 50.01953125 C-291.04816173 44.02506735 -291.85535655 38.34822822 -291.203125 31.3515625 C-289.20889216 25.15894474 -286.15332492 20.10232308 -280.46484375 16.7265625 C-274.19785079 14.08466846 -266.65399713 13.62652034 -260.22265625 16.11914062 C-256.06548545 18.17283279 -252.17198493 20.66352263 -248.24462891 23.12011719 C-223.1116035 38.28048314 -190.25107637 46.37699553 -161.13671875 46.58984375 C-160.06680191 46.5979155 -158.99688507 46.60598724 -157.89454651 46.61430359 C-155.62771195 46.62810285 -153.36085698 46.6388435 -151.09399414 46.64672852 C-148.81853976 46.65815003 -146.54311003 46.67844181 -144.26782227 46.70825195 C-124.66324848 46.96445541 -106.04313431 45.23920838 -87.390625 38.8515625 C-86.51599609 38.56925781 -85.64136719 38.28695312 -84.74023438 37.99609375 C-60.5092476 30.00944487 -39.31910026 16.19081668 -18.76855469 1.42382812 C-13.63884376 -2.08984786 -5.81838391 -1.71250307 0 0 Z " fill="#FA593C" transform="translate(1710.203125,544.6484375)"/>
<path d="M0 0 C0.92039062 0.31066406 1.84078125 0.62132812 2.7890625 0.94140625 C23.69068852 8.33991832 40.60424426 24.78823572 51 44 C52.76473365 47.8994921 53.19985484 50.70312098 53 55 C46.14555966 56.83899619 39.24504715 58.07012406 32.25 59.25 C30.98704102 59.46543457 29.72408203 59.68086914 28.42285156 59.90283203 C17.79175953 61.71353632 7.15300832 63.47897269 -3.48535156 65.24636841 C-15.35293097 67.2181467 -27.21654126 69.21245191 -39.0760498 71.23223877 C-40.82702783 71.53035667 -42.57808296 71.8280221 -44.32922363 72.12518311 C-57.89004065 74.42743566 -71.40827113 76.90414352 -84.90966797 79.53417969 C-92.7138804 81.047128 -100.52790333 82.4767879 -108.375 83.75 C-109.14110596 83.87761719 -109.90721191 84.00523437 -110.6965332 84.13671875 C-115.19058886 84.84628026 -119.45030671 85.12004468 -124 85 C-125.28189703 61.89024519 -115.59775927 42.15879095 -100.75 24.9375 C-90.02383538 13.37928888 -77.4032126 5.2137238 -62.75 -0.375 C-62.12520752 -0.61371826 -61.50041504 -0.85243652 -60.85668945 -1.09838867 C-41.65777567 -8.02041196 -18.88036634 -7.45277619 0 0 Z " fill="#FCFCFC" transform="translate(1606,302)"/>
<path d="M0 0 C10.53874239 9.30373351 18.22001079 20.34727583 22 34 C22 34.66 22 35.32 22 36 C13.79781894 38.20785493 5.65457951 39.7983587 -2.75 41 C-10.99735737 42.22343907 -19.1846286 43.54513259 -27.3671875 45.14453125 C-31.42412108 45.91513803 -35.49591885 46.59100048 -39.5703125 47.26171875 C-40.24843994 47.37347946 -40.92656738 47.48524017 -41.62524414 47.60038757 C-45.0732729 48.16747755 -48.52204425 48.72963641 -51.97167969 49.28686523 C-53.23657227 49.49384033 -54.50146484 49.70081543 -55.8046875 49.9140625 C-56.94921387 50.0992041 -58.09374023 50.2843457 -59.27294922 50.47509766 C-61.9519737 50.86344662 -61.9519737 50.86344662 -64 52 C-65.87563102 52.32503364 -67.75881952 52.60693791 -69.64453125 52.8671875 C-70.79759766 53.03089844 -71.95066406 53.19460938 -73.13867188 53.36328125 C-75.54467284 53.69840738 -77.95091514 54.03180649 -80.35742188 54.36328125 C-87.25834462 55.34640553 -93.96330859 56.64746397 -100.73852539 58.27734375 C-106.38054276 59.52746512 -112.09031769 60.27824151 -117.8125 61.0625 C-126.60401709 62.2013468 -126.60401709 62.2013468 -135.26171875 64.05078125 C-139.50327576 65.12779102 -143.65674492 65.66583438 -148 66.125 C-148.77472656 66.21136719 -149.54945313 66.29773438 -150.34765625 66.38671875 C-152.23123721 66.59600552 -154.11554808 66.79870627 -156 67 C-157.56173293 45.10103377 -148.03510239 24.45656897 -134 8 C-98.8456905 -31.86940365 -39.9021577 -34.15236761 0 0 Z " fill="#FBFCFC" transform="translate(709,321)"/>
<path d="M0 0 C0.33 0.99 0.66 1.98 1 3 C-3.62 7.62 -8.24 12.24 -13 17 C-13.99 16.67 -14.98 16.34 -16 16 C-10.72 10.72 -5.44 5.44 0 0 Z " fill="#144945" transform="translate(1481,280)"/>
<path d="M0 0 C1.29035156 0.00902344 2.58070312 0.01804687 3.91015625 0.02734375 C7.06530249 0.0507152 10.22004926 0.08347909 13.375 0.125 C13.375 0.455 13.375 0.785 13.375 1.125 C12.61880371 1.15005615 11.86260742 1.1751123 11.08349609 1.20092773 C7.63884541 1.31736886 4.19443592 1.43987662 0.75 1.5625 C-1.03470703 1.62147461 -1.03470703 1.62147461 -2.85546875 1.68164062 C-4.00917969 1.72353516 -5.16289063 1.76542969 -6.3515625 1.80859375 C-7.93831787 1.86358032 -7.93831787 1.86358032 -9.55712891 1.91967773 C-12.65545177 2.12703803 -15.59502501 2.43828323 -18.625 3.125 C-18.955 3.785 -19.285 4.445 -19.625 5.125 C-22.625 4.125 -22.625 4.125 -24.625 2.125 C-16.39048242 -0.00631517 -8.4684457 -0.11337775 0 0 Z " fill="#BECDCD" transform="translate(1575.625,296.875)"/>
<path d="M0 0 C-2.70879335 1.35439668 -5.00933268 1.06501451 -8 1 C-8 1.99 -8 2.98 -8 4 C-8.86625 3.814375 -9.7325 3.62875 -10.625 3.4375 C-14.11365088 2.98526748 -16.5597514 3.38075525 -20 4 C-22.67364863 4.08718419 -25.32384126 4.04614067 -28 4 C-28 3.67 -28 3.34 -28 3 C-24.08559007 2.29921164 -20.168211 1.61668646 -16.25 0.9375 C-14.58324219 0.63875977 -14.58324219 0.63875977 -12.8828125 0.33398438 C-11.81289063 0.15029297 -10.74296875 -0.03339844 -9.640625 -0.22265625 C-8.16384277 -0.48187866 -8.16384277 -0.48187866 -6.65722656 -0.74633789 C-4.09865957 -0.99058184 -2.41709608 -0.80486291 0 0 Z " fill="#507975" transform="translate(600,381)"/>
<path d="M0 0 C0.66 0.33 1.32 0.66 2 1 C1.56429687 1.49628906 1.12859375 1.99257813 0.6796875 2.50390625 C-3.24273979 6.97819019 -7.13544286 11.47564042 -11 16 C-11.99 15.34 -12.98 14.68 -14 14 C-9.38 9.38 -4.76 4.76 0 0 Z " fill="#1A4E4B" transform="translate(869,280)"/>
<path d="M0 0 C0.66 0.33 1.32 0.66 2 1 C1.54625 1.4125 1.0925 1.825 0.625 2.25 C-1.06633863 3.89202679 -1.06633863 3.89202679 -1.875 5.875 C-3.41733854 8.78830613 -5.6496091 10.70693571 -8 13 C-9.02813611 14.31175986 -10.04084432 15.6369893 -11 17 C-11.66 16.67 -12.32 16.34 -13 16 C-8.80898673 10.53184364 -4.52923792 5.19205322 0 0 Z " fill="#E2EAEA" transform="translate(900,321)"/>
<path d="M0 0 C-1.14453125 1.51953125 -1.14453125 1.51953125 -3 3 C-5.69921875 3.07421875 -5.69921875 3.07421875 -8.6875 2.6875 C-10.17830078 2.50767578 -10.17830078 2.50767578 -11.69921875 2.32421875 C-12.45847656 2.21722656 -13.21773437 2.11023438 -14 2 C-14 1.67 -14 1.34 -14 1 C-12.04310963 0.63794536 -10.08442332 0.28558579 -8.125 -0.0625 C-7.03445313 -0.25972656 -5.94390625 -0.45695312 -4.8203125 -0.66015625 C-2 -1 -2 -1 0 0 Z M-12 3 C-10.35 3 -8.7 3 -7 3 C-7 3.33 -7 3.66 -7 4 C-8.65 4 -10.3 4 -12 4 C-12 3.67 -12 3.34 -12 3 Z " fill="#C2D1D1" transform="translate(766,399)"/>
<path d="M0 0 C1.74965358 -0.05429959 3.49979787 -0.09292823 5.25 -0.125 C6.22453125 -0.14820313 7.1990625 -0.17140625 8.203125 -0.1953125 C11.0196498 0.00137219 12.60949036 0.55431084 15 2 C14 3 14 3 11.93359375 3.09765625 C11.10988281 3.08605469 10.28617188 3.07445312 9.4375 3.0625 C8.61121094 3.05347656 7.78492188 3.04445312 6.93359375 3.03515625 C6.29550781 3.02355469 5.65742187 3.01195312 5 3 C5 2.67 5 2.34 5 2 C3.35 1.67 1.7 1.34 0 1 C0 0.67 0 0.34 0 0 Z " fill="#225954" transform="translate(630,247)"/>
<path d="M0 0 C-2.57213134 1.61949011 -3.67669159 2.04408751 -6.75 1.625 C-7.4925 1.41875 -8.235 1.2125 -9 1 C-9.33 1.66 -9.66 2.32 -10 3 C-11.65 2.67 -13.3 2.34 -15 2 C-15 1.67 -15 1.34 -15 1 C-13.25215171 0.63536268 -11.50159498 0.2836922 -9.75 -0.0625 C-8.28820312 -0.35833984 -8.28820312 -0.35833984 -6.796875 -0.66015625 C-4.131881 -0.98397535 -2.51128277 -0.85503199 0 0 Z M-8 2 C-4 3 -4 3 -4 3 Z " fill="#B4C7C6" transform="translate(734,405)"/>
<path d="M0 0 C0.66 0.33 1.32 0.66 2 1 C-0.31 3.64 -2.62 6.28 -5 9 C-5.99 8.67 -6.98 8.34 -8 8 C-5.36 5.36 -2.72 2.72 0 0 Z " fill="#164A46" transform="translate(325,279)"/>
<path d="M0 0 C0 0.66 0 1.32 0 2 C-6.625 3.25 -6.625 3.25 -10 1 C-6.61981469 -0.04005702 -3.5219721 -0.08004482 0 0 Z M-10 3 C-7 4 -7 4 -7 4 Z " fill="#285D59" transform="translate(935,251)"/>
<path d="M0 0 C0.66 0.99 1.32 1.98 2 3 C0.35 5.64 -1.3 8.28 -3 11 C-3.66 10.67 -4.32 10.34 -5 10 C-3.35 6.7 -1.7 3.4 0 0 Z " fill="#184E4B" transform="translate(521,318)"/>
<path d="M0 0 C0.66 0.33 1.32 0.66 2 1 C-1.17320782 4.53586014 -3.16743695 6.58578031 -8 7 C-5.42215154 4.35247996 -3.08351902 2.05567935 0 0 Z " fill="#FC6549" transform="translate(1680,554)"/>
<path d="M0 0 C2.31 0.33 4.62 0.66 7 1 C7 1.33 7 1.66 7 2 C5.25215171 2.36463732 3.50159498 2.7163078 1.75 3.0625 C0.28820313 3.35833984 0.28820313 3.35833984 -1.203125 3.66015625 C-3.868119 3.98397535 -5.48871723 3.85503199 -8 3 C-7.34 3 -6.68 3 -6 3 C-5.67 2.34 -5.34 1.68 -5 1 C-3.35 1.33 -1.7 1.66 0 2 C0 1.34 0 0.68 0 0 Z " fill="#46706F" transform="translate(1625,408)"/>
<path d="M0 0 C2.31 0.33 4.62 0.66 7 1 C7 1.33 7 1.66 7 2 C5.25215171 2.36463732 3.50159498 2.7163078 1.75 3.0625 C0.28820313 3.35833984 0.28820313 3.35833984 -1.203125 3.66015625 C-3.868119 3.98397535 -5.48871723 3.85503199 -8 3 C-7.34 3 -6.68 3 -6 3 C-5.67 2.34 -5.34 1.68 -5 1 C-3.35 1.33 -1.7 1.66 0 2 C0 1.34 0 0.68 0 0 Z " fill="#4A736F" transform="translate(1654,403)"/>
<path d="M0 0 C4.79280002 0.80904103 6.13520113 3.25984591 9 7 C6 7 6 7 4.39453125 5.46875 C3.87246094 4.8190625 3.35039063 4.169375 2.8125 3.5 C2.28269531 2.8503125 1.75289062 2.200625 1.20703125 1.53125 C0.80871094 1.0259375 0.41039062 0.520625 0 0 Z " fill="#2B5855" transform="translate(1669,283)"/>
<path d="M0 0 C1.21386936 3.64160808 0.6674695 4.33165469 -0.9375 7.6875 C-1.31777344 8.49574219 -1.69804688 9.30398438 -2.08984375 10.13671875 C-2.39019531 10.75160156 -2.69054688 11.36648438 -3 12 C-3.66 11.34 -4.32 10.68 -5 10 C-3.35 6.7 -1.7 3.4 0 0 Z " fill="#154A48" transform="translate(1449,319)"/>
<path d="M0 0 C0 3.99476331 -1.28869085 5.1421336 -4 8 C-6.75 9.3125 -6.75 9.3125 -9 10 C-8.06409496 8.8944811 -7.12620142 7.79064547 -6.1875 6.6875 C-5.66542969 6.07261719 -5.14335937 5.45773437 -4.60546875 4.82421875 C-3.12827531 3.14575321 -1.59960869 1.56117966 0 0 Z " fill="#E6EEED" transform="translate(354,322)"/>
<path d="M0 0 C0.66 0.33 1.32 0.66 2 1 C1.360625 1.103125 0.72125 1.20625 0.0625 1.3125 C-0.618125 1.539375 -1.29875 1.76625 -2 2 C-2.33 2.99 -2.66 3.98 -3 5 C-5.97 4.505 -5.97 4.505 -9 4 C-6.06195683 2.47657021 -3.13439441 1.07229283 0 0 Z " fill="#386863" transform="translate(1612,480)"/>
<path d="M0 0 C5.75 0.75 5.75 0.75 8 3 C4.71023192 4.09658936 3.28696233 3.79953138 0 3 C0 2.01 0 1.02 0 0 Z " fill="#2D5C57" transform="translate(1538,480)"/>
<path d="M0 0 C-0.99 1.32 -1.98 2.64 -3 4 C-3.99 3.67 -4.98 3.34 -6 3 C-6 2.01 -6 1.02 -6 0 C-3.50907189 -1.24546405 -2.58919267 -0.7767578 0 0 Z " fill="#E3EAEA" transform="translate(1497,435)"/>
<path d="M0 0 C4.39158329 1.4638611 4.87947433 3.97831338 7 8 C3.64379729 6.61122646 1.92701272 5.08322035 0 2 C0 1.34 0 0.68 0 0 Z " fill="#154542" transform="translate(563,441)"/>
<path d="M0 0 C3.37462715 0.54723683 5.08235 1.0549 8 3 C7.67 3.66 7.34 4.32 7 5 C4.0625 4.1875 4.0625 4.1875 1 3 C0.67 2.01 0.34 1.02 0 0 Z " fill="#1B534E" transform="translate(677,300)"/>
</svg>
